<svg width="28" height="28" viewBox="0 0 28 28" fill="none" xmlns="http://www.w3.org/2000/svg">
<path d="M11.0833 16.0417C11.0833 17.1734 11.9583 18.0834 13.0317 18.0834H15.225C16.1583 18.0834 16.9166 17.29 16.9166 16.2984C16.9166 15.2367 16.45 14.8517 15.7617 14.6067L12.25 13.3817C11.5616 13.1367 11.095 12.7634 11.095 11.69C11.095 10.71 11.8533 9.90503 12.7866 9.90503H14.98C16.0533 9.90503 16.9283 10.815 16.9283 11.9467" stroke="black" stroke-width="1.5" stroke-linecap="round" stroke-linejoin="round"/>
<path d="M14 8.75V19.25" stroke="black" stroke-width="1.5" stroke-linecap="round" stroke-linejoin="round"/>
<path d="M25.6666 14C25.6666 20.44 20.44 25.6666 14 25.6666C7.55998 25.6666 2.33331 20.44 2.33331 14C2.33331 7.55998 7.55998 2.33331 14 2.33331" stroke="black" stroke-width="1.5" stroke-linecap="round" stroke-linejoin="round"/>
<path d="M19.8333 3.5V8.16667H24.5" stroke="black" stroke-width="1.5" stroke-linecap="round" stroke-linejoin="round"/>
<path d="M25.6666 2.33331L19.8333 8.16665" stroke="black" stroke-width="1.5" stroke-linecap="round" stroke-linejoin="round"/>
</svg>
