<svg width="24" height="24" viewBox="0 0 24 24" fill="none" xmlns="http://www.w3.org/2000/svg">
<path d="M4.92309 6.75758C4.92309 6.2555 5.3622 5.84848 5.90386 5.84848H13.0962C13.6378 5.84848 14.0769 6.2555 14.0769 6.75758C14.0769 7.25966 13.6378 7.66667 13.0962 7.66667H5.90386C5.3622 7.66667 4.92309 7.25966 4.92309 6.75758Z" fill="#212121"/>
<path d="M4.92309 11C4.92309 10.4979 5.3622 10.0909 5.90386 10.0909H13.0962C13.6378 10.0909 14.0769 10.4979 14.0769 11C14.0769 11.5021 13.6378 11.9091 13.0962 11.9091H5.90386C5.3622 11.9091 4.92309 11.5021 4.92309 11Z" fill="#212121"/>
<path d="M4.92309 15.2424C4.92309 14.7404 5.3622 14.3333 5.90386 14.3333H9.17308C9.71472 14.3333 10.1538 14.7404 10.1538 15.2424C10.1538 15.7445 9.71472 16.1515 9.17308 16.1515H5.90386C5.3622 16.1515 4.92309 15.7445 4.92309 15.2424Z" fill="#212121"/>
<path d="M3.94231 1C2.31732 1 1 2.22104 1 3.72727V17.0606C1 19.1343 2.72861 20.8338 4.92309 20.9885L5.25 21H11.9428C12.3992 21 12.7692 20.63 12.7692 20.1736C12.7692 19.7171 12.3992 19.3471 11.9428 19.3471H5.27972C4.01583 19.3471 2.60489 18.2321 2.60489 17.0606V10.4215V3.72727C2.60489 3.2252 3.40065 2.4876 3.94231 2.4876H15.0577C15.5993 2.4876 16.514 3.2252 16.514 3.72727V12.1578C16.514 12.5682 16.8466 12.9008 17.257 12.9008C17.6673 12.9008 18 12.5682 18 12.1578V3.72727C18 2.22104 16.6826 1 15.0577 1H3.94231Z" fill="#212121"/>
<path d="M20.9375 17.5C20.9375 15.6015 19.3985 14.0625 17.5 14.0625C16.5975 14.0625 15.7762 14.4103 15.1629 14.9792H15.7812C15.9711 14.9792 16.125 15.1331 16.125 15.3229C16.125 15.5128 15.9711 15.6667 15.7812 15.6667H14.4062C14.2164 15.6667 14.0625 15.5128 14.0625 15.3229V13.9479C14.0625 13.7581 14.2164 13.6042 14.4062 13.6042C14.5961 13.6042 14.75 13.7581 14.75 13.9479V14.4254C15.4798 13.7722 16.4435 13.375 17.5 13.375C19.7782 13.375 21.625 15.2218 21.625 17.5C21.625 19.7782 19.7782 21.625 17.5 21.625C15.2218 21.625 13.375 19.7782 13.375 17.5C13.375 17.2854 13.3914 17.0746 13.423 16.8688C13.4488 16.7008 13.5979 16.5833 13.7678 16.5833C13.9782 16.5833 14.1305 16.7842 14.0997 16.9923C14.0752 17.158 14.0625 17.3275 14.0625 17.5C14.0625 19.3985 15.6015 20.9375 17.5 20.9375C19.3985 20.9375 20.9375 19.3985 20.9375 17.5ZM17.7292 15.5521C17.7292 15.3622 17.5753 15.2083 17.3854 15.2083C17.1956 15.2083 17.0417 15.3622 17.0417 15.5521V17.6146C17.0417 17.8044 17.1956 17.9583 17.3854 17.9583H18.5312C18.7211 17.9583 18.875 17.8044 18.875 17.6146C18.875 17.4247 18.7211 17.2708 18.5312 17.2708H17.7292V15.5521Z" fill="#212121" stroke="#212121" stroke-width="0.5"/>
</svg>
